<?xml version="1.0" encoding="utf-8" ?><svg xmlns="http://www.w3.org/2000/svg" xmlns:xlink="http://www.w3.org/1999/xlink" width="514" height="518" viewBox="0 0 514 518"><defs><linearGradient id="gradient_0" gradientUnits="userSpaceOnUse" x1="490.66812" y1="491.32269" x2="-0.9181124" y2="2.4272935"><stop offset="0" stop-color="#DBECFE"/><stop offset="1" stop-color="#FFFFFE"/></linearGradient></defs><path fill="url(#gradient_0)" transform="matrix(1.04898 0 0 1.04858 0 -3.05176e-05)" d="M0 0L490 0L490 494L0 494L0 0Z"/><defs><linearGradient id="gradient_1" gradientUnits="userSpaceOnUse" x1="331.25781" y1="342.03677" x2="175.31401" y2="181.34189"><stop offset="0" stop-color="#0F78B9"/><stop offset="1" stop-color="#49B8EC"/></linearGradient></defs><path fill="url(#gradient_1)" transform="matrix(1.04898 0 0 1.04858 0 -3.05176e-05)" d="M227.677 179.845C230.246 178.779 232.111 176.729 233.586 174.449C261.527 131.25 315.402 104.577 365.752 124.038C383.796 131.056 399.889 144.901 409.822 161.489C415.724 171.346 418.813 170.115 428.098 174.833C438.145 179.938 462.046 188.309 464.343 200.215C463.549 202.789 461.884 205.734 459.626 207.195C443.048 217.923 426.347 225.665 411.67 239.519C394.506 255.719 382.137 275.49 369.856 295.457C350.465 326.258 325.192 353.632 292.562 370.578C253.012 391.178 205.23 392.363 163.067 379.605C151.056 375.663 129.383 366.264 132.926 350.434C134.074 345.308 141.934 340.986 146.698 341.88C157.483 343.905 168.54 345.405 179.463 346.865C191.013 348.309 202.643 349.012 214.283 348.969C260.603 349.066 304.188 335.914 332.514 296.939C345.409 279.196 354.613 259.288 368.575 242.233C377.988 230.733 386.784 221.348 398.628 212.315C403.534 208.574 410.831 204.631 414.588 200.339C407.179 194.214 398.108 193.324 390.194 188.584C388.919 187.82 386.158 181.743 385.067 179.8C383.792 177.535 382.413 175.33 380.934 173.192C368.14 154.91 344.651 146.344 323.121 148.543C298.39 151.068 280.101 163.648 265.109 182.875C261.849 187.055 257.279 192.404 255.615 197.463C256.934 200.503 259.204 202.85 261.124 205.522C274.104 223.579 275.144 246.013 267.452 266.446C259.737 286.363 244.534 302.469 225.095 311.32C219.059 314.015 212.154 316.612 205.602 317.515C193.492 319.186 181.425 319.413 169.25 319.648C148.34 319.85 127.428 319.739 106.522 319.314L58.9998 318.519L41.814 318.342C39.7868 318.31 36.9182 318.392 34.9632 318.258C29.0791 318.666 23.5599 317.924 19.294 313.574C16.3964 310.674 14.8156 306.712 14.921 302.614C14.9898 298.843 16.7423 295.065 19.4515 292.493C24.9218 287.3 34.2265 288.237 41.1917 288.236L62.112 288.24L99.055 288.242C106.053 288.237 113.509 288.097 120.448 288.288C138.229 287.89 155.753 288.148 173.528 287.836C183.817 287.656 195.969 287.353 206.086 285.517C208.215 285.131 215.041 282.994 216.876 281.815C224.232 276.859 231.328 269.583 236.113 262.177C244.976 248.458 244.162 233.766 232.927 221.833C221.011 209.177 206.244 206.164 191.024 199.368C184.83 196.603 178.336 192.872 172.604 189.306C173.725 188.568 173.494 189.259 174.599 188.148C175.114 184.136 182.428 180.155 185.058 177.02C186.057 175.83 188.479 174.827 189.267 173.105C190.059 171.375 193.118 170.215 194.854 169.551L195.061 169.604C195.903 169.812 196.545 170.023 197.274 169.584C197.017 168.99 196.914 168.953 197.038 168.344L197.738 168.003C204.352 171.526 220.889 178.79 227.677 179.845Z"/><path fill="#3AA6DE" transform="matrix(1.04898 0 0 1.04858 0 -3.05176e-05)" d="M34.9632 318.258C29.0791 318.666 23.5599 317.924 19.294 313.574C16.3964 310.674 14.8156 306.712 14.921 302.614C14.9898 298.843 16.7423 295.065 19.4515 292.493C24.9218 287.3 34.2265 288.237 41.1917 288.236L62.112 288.24L99.055 288.242C106.053 288.237 113.509 288.097 120.448 288.288C117.548 288.782 109.813 288.419 106.555 288.421L79.8252 288.506C75.4711 288.525 68.993 288.368 64.7776 288.692C66.5175 289.223 71.5966 288.924 72.1902 289.412C70.349 290.412 69.6179 288.948 66.6599 291.264C64.0063 293.3 61.3017 294.849 59.2929 297.584C59.0424 297.925 56.9844 300.739 56.8759 300.831C52.2088 304.775 49.1436 309.878 44.8558 314.114C44.4633 314.502 42.6749 315.058 42.4755 315.475C43.0732 315.757 43.2849 315.732 43.8473 316.121L43.2264 316.305L43.1287 316.89C42.5404 317.277 37.0478 317.353 34.9547 317.837L34.9632 318.258Z"/><path fill="#96CEEA" transform="matrix(1.04898 0 0 1.04858 0 -3.05176e-05)" d="M325.625 152.853C345.19 151.463 366.954 160.148 377.864 176.766C380.634 180.986 384.055 189.115 387.331 191.792C392.427 195.956 400.871 197.388 407.119 200.942C384.69 215.62 368.51 232.769 353.712 255.125C345.936 266.65 339.485 278.86 331.673 290.375C320.826 306.363 306.772 319.122 289.767 328.348C280.363 333.45 271.099 336.336 260.929 339.267C252.776 341.426 243.622 342.531 235.25 343.572C233.606 343.776 218.495 344.556 218.022 344.053C213.633 339.39 202.924 329.742 201.485 323.685C201.547 323.44 201.526 323.156 201.671 322.948C202.116 322.31 207.159 322.008 208.205 321.887C218.155 320.738 234.214 312.241 242.379 306.296C259.773 293.631 272.655 273.505 275.857 252.124C277.88 238.619 276.275 223.768 269.932 211.553C267.23 206.352 263.73 201.644 260.267 196.938C262.329 194.626 265.472 189.274 267.969 186.26C284.563 166.219 299.314 155.617 325.625 152.853Z"/><path fill="#FEFEFE" transform="matrix(1.04898 0 0 1.04858 0 -3.05176e-05)" d="M331.329 174.497C344.553 173.044 356.471 182.536 358.014 195.749C359.558 208.963 350.148 220.945 336.946 222.58C323.614 224.23 311.489 214.709 309.93 201.366C308.372 188.023 317.976 175.963 331.329 174.497Z"/><path fill="#3AA6DE" transform="matrix(1.04898 0 0 1.04858 0 -3.05176e-05)" d="M332.548 178.795C343.365 178.011 352.803 186.066 353.729 196.872C354.655 207.678 346.725 217.221 335.932 218.289C328.823 218.993 321.886 215.817 317.773 209.976C313.66 204.135 313.009 196.532 316.068 190.077C319.127 183.621 325.423 179.311 332.548 178.795Z"/><defs><linearGradient id="gradient_2" gradientUnits="userSpaceOnUse" x1="211.95964" y1="213.44708" x2="55.409618" y2="97.372627"><stop offset="0" stop-color="#3FADE2"/><stop offset="1" stop-color="#64D0FD"/></linearGradient></defs><path fill="url(#gradient_2)" transform="matrix(1.04898 0 0 1.04858 0 -3.05176e-05)" d="M172.604 189.306C148.554 174.275 127.746 154.283 114.027 129.253C112.951 127.29 109.873 120.979 108.229 120.208L107.949 120.334C107.233 123.349 107.499 126.842 107.499 129.925C107.499 142.807 108.084 156.012 110.347 168.713C111.23 173.667 112.7 178.758 114.361 183.506C121.359 203.51 136.581 218.173 157.913 221.521C165.71 222.744 174.424 222.821 181.603 226.327C185.61 228.283 189.255 231.102 190.692 235.497C191.614 238.317 191.488 241.277 190.092 243.921C188.056 247.778 183.568 250.397 179.511 251.619C169.816 254.541 155.777 253.397 145.944 250.936C139.919 249.429 133.656 247.038 128.183 244.121C106.659 232.651 90.2378 211.465 83.1875 188.199C79.9217 177.422 78.1795 167.045 77.4576 155.808C75.8564 130.88 80.4429 69.0064 91.9064 47.8654C93.472 44.9781 95.3144 43.3204 98.5127 42.4231C102.312 41.3571 106.122 41.5847 109.566 43.617C119.317 49.3702 114.958 61.386 117.418 70.2876C118.358 73.6907 119.999 76.9701 121.463 80.1738C124.11 85.9687 126.858 91.5616 129.944 97.1355C148.233 130.162 164.53 149.4 197.738 168.003L197.038 168.344C196.914 168.953 197.017 168.99 197.274 169.584C196.545 170.023 195.903 169.812 195.061 169.604L194.854 169.551C193.118 170.215 190.059 171.375 189.267 173.105C188.479 174.827 186.057 175.83 185.058 177.02C182.428 180.155 175.114 184.136 174.599 188.148C173.494 189.259 173.725 188.568 172.604 189.306Z"/><path fill="#96CEEA" transform="matrix(1.04898 0 0 1.04858 0 -3.05176e-05)" d="M112.281 135.464C112.818 135.965 115.034 139.738 115.684 140.734C133.586 168.156 159.93 189.63 189.446 203.533C204.601 210.402 222.798 214.437 232.874 228.874C238.076 236.328 238.948 245.531 235.333 253.803C231.459 262.667 223.222 272.253 215.226 277.466C212.759 278.867 201.629 282.853 199.588 281.496C200.834 281.472 201.505 281.626 202.216 280.544C202.342 276.538 185.078 261.781 181.955 256.214C181.279 255.96 181.062 256.151 180.224 256.306L180.006 256.122C183.219 255.62 187.517 252.868 189.951 250.736C196.306 245.172 197.639 236.492 192.454 229.527C183.096 216.956 165.446 219.552 152.14 215.588C143.849 213.118 136.101 208.508 130.462 202.022C116.794 187.547 113.226 164.754 112.554 145.566C112.448 142.541 112.154 138.434 112.281 135.464Z"/><defs><linearGradient id="gradient_3" gradientUnits="userSpaceOnUse" x1="200.93022" y1="475.67822" x2="126.46645" y2="409.08508"><stop offset="0" stop-color="#0E72B3"/><stop offset="1" stop-color="#2798D5"/></linearGradient></defs><path fill="url(#gradient_3)" transform="matrix(1.04898 0 0 1.04858 0 -3.05176e-05)" d="M167.148 426.623C176.813 426.576 186.479 426.666 196.141 426.893C202.405 427.011 211.213 426.855 217.029 428.281C227.483 430.844 229.674 445.96 222.248 452.872C220.472 454.525 218.089 456.364 215.748 456.781C210.573 457.703 205.057 457.612 199.798 457.767C186.994 458.15 174.184 458.312 161.375 458.253C149.529 458.363 137.682 458.298 125.838 458.056C119.713 457.873 110.69 458.612 105.602 454.007C98.775 447.828 100.404 432.629 109.484 429.188C111.847 428.293 119.177 428.052 122.135 427.857C137.067 426.876 152.168 426.866 167.148 426.623Z"/><path fill="#3AA6DE" transform="matrix(1.04898 0 0 1.04858 0 -3.05176e-05)" d="M50.4337 359.612C60.2785 359.001 70.412 359.652 80.3343 360.011C93.4327 360.485 98.7238 375.87 90.1724 385.142C84.3309 391.476 75.1886 390.565 67.062 390.915C63.6997 391.041 60.0756 391.092 56.6616 391.028C49.0319 390.886 40.9625 391.569 33.4658 390.01C31.339 389.516 29.7834 388.454 28.1304 387.113C20.4214 381.267 21.4281 364.541 30.9629 361.231C35.207 359.758 45.6323 359.789 50.4337 359.612Z"/></svg>